<mxfile host="app.diagrams.net" modified="2023-12-26T15:42:47.624Z" agent="Mozilla/5.0 (Windows NT 10.0; Win64; x64) AppleWebKit/537.36 (KHTML, like Gecko) Chrome/120.0.0.0 Safari/537.36" version="22.1.11" etag="xZfr_7Hy37IS9vz0nopV" type="device">
  <diagram id="WWKobYZtgiUawM5-BSAP" name="Сторінка-1">
    <mxGraphModel dx="1900" dy="807" grid="1" gridSize="10" guides="1" tooltips="1" connect="1" arrows="1" fold="1" page="0" pageScale="1" pageWidth="827" pageHeight="1169" background="none" math="0" shadow="0">
      <root>
        <mxCell id="0" />
        <mxCell id="1" parent="0" />
        <mxCell id="VNvHuFi4SlJEL6buC3LD-1" value="Початок" style="ellipse;whiteSpace=wrap;html=1;" vertex="1" parent="1">
          <mxGeometry x="70" y="130" width="130" height="80" as="geometry" />
        </mxCell>
        <mxCell id="VNvHuFi4SlJEL6buC3LD-10" style="edgeStyle=orthogonalEdgeStyle;rounded=0;orthogonalLoop=1;jettySize=auto;html=1;entryX=0.5;entryY=0;entryDx=0;entryDy=0;" edge="1" parent="1" source="VNvHuFi4SlJEL6buC3LD-2" target="VNvHuFi4SlJEL6buC3LD-4">
          <mxGeometry relative="1" as="geometry" />
        </mxCell>
        <mxCell id="VNvHuFi4SlJEL6buC3LD-2" value="Введення:&lt;br&gt;&amp;nbsp;parent node/internal node" style="shape=parallelogram;perimeter=parallelogramPerimeter;whiteSpace=wrap;html=1;fixedSize=1;" vertex="1" parent="1">
          <mxGeometry x="40" y="250" width="180" height="60" as="geometry" />
        </mxCell>
        <mxCell id="VNvHuFi4SlJEL6buC3LD-13" style="edgeStyle=orthogonalEdgeStyle;rounded=0;orthogonalLoop=1;jettySize=auto;html=1;entryX=0.5;entryY=0;entryDx=0;entryDy=0;" edge="1" parent="1" source="VNvHuFi4SlJEL6buC3LD-3" target="VNvHuFi4SlJEL6buC3LD-5">
          <mxGeometry relative="1" as="geometry" />
        </mxCell>
        <mxCell id="VNvHuFi4SlJEL6buC3LD-16" style="edgeStyle=orthogonalEdgeStyle;rounded=0;orthogonalLoop=1;jettySize=auto;html=1;endArrow=none;endFill=0;" edge="1" parent="1" source="VNvHuFi4SlJEL6buC3LD-3">
          <mxGeometry relative="1" as="geometry">
            <mxPoint x="-20" y="750" as="targetPoint" />
          </mxGeometry>
        </mxCell>
        <mxCell id="VNvHuFi4SlJEL6buC3LD-3" value="node!=null" style="rhombus;whiteSpace=wrap;html=1;" vertex="1" parent="1">
          <mxGeometry x="95" y="470" width="90" height="80" as="geometry" />
        </mxCell>
        <mxCell id="VNvHuFi4SlJEL6buC3LD-11" style="edgeStyle=orthogonalEdgeStyle;rounded=0;orthogonalLoop=1;jettySize=auto;html=1;entryX=0.5;entryY=0;entryDx=0;entryDy=0;" edge="1" parent="1" source="VNvHuFi4SlJEL6buC3LD-4" target="VNvHuFi4SlJEL6buC3LD-3">
          <mxGeometry relative="1" as="geometry" />
        </mxCell>
        <mxCell id="VNvHuFi4SlJEL6buC3LD-4" value="postOrder(Node node)" style="ellipse;whiteSpace=wrap;html=1;" vertex="1" parent="1">
          <mxGeometry x="70" y="350" width="130" height="80" as="geometry" />
        </mxCell>
        <mxCell id="VNvHuFi4SlJEL6buC3LD-14" style="edgeStyle=orthogonalEdgeStyle;rounded=0;orthogonalLoop=1;jettySize=auto;html=1;entryX=0.5;entryY=0;entryDx=0;entryDy=0;" edge="1" parent="1" source="VNvHuFi4SlJEL6buC3LD-5" target="VNvHuFi4SlJEL6buC3LD-6">
          <mxGeometry relative="1" as="geometry" />
        </mxCell>
        <mxCell id="VNvHuFi4SlJEL6buC3LD-18" style="edgeStyle=orthogonalEdgeStyle;rounded=0;orthogonalLoop=1;jettySize=auto;html=1;endArrow=none;endFill=0;" edge="1" parent="1" source="VNvHuFi4SlJEL6buC3LD-5">
          <mxGeometry relative="1" as="geometry">
            <mxPoint x="290" y="390" as="targetPoint" />
          </mxGeometry>
        </mxCell>
        <mxCell id="VNvHuFi4SlJEL6buC3LD-5" value="postOrder(node.getLeft())" style="rounded=0;whiteSpace=wrap;html=1;" vertex="1" parent="1">
          <mxGeometry x="60" y="580" width="160" height="60" as="geometry" />
        </mxCell>
        <mxCell id="VNvHuFi4SlJEL6buC3LD-19" style="edgeStyle=orthogonalEdgeStyle;rounded=0;orthogonalLoop=1;jettySize=auto;html=1;endArrow=none;endFill=0;" edge="1" parent="1" source="VNvHuFi4SlJEL6buC3LD-6">
          <mxGeometry relative="1" as="geometry">
            <mxPoint x="290" y="390" as="targetPoint" />
          </mxGeometry>
        </mxCell>
        <mxCell id="VNvHuFi4SlJEL6buC3LD-6" value="postOrder(node.getRight())" style="rounded=0;whiteSpace=wrap;html=1;" vertex="1" parent="1">
          <mxGeometry x="60" y="680" width="160" height="60" as="geometry" />
        </mxCell>
        <mxCell id="VNvHuFi4SlJEL6buC3LD-21" style="edgeStyle=orthogonalEdgeStyle;rounded=0;orthogonalLoop=1;jettySize=auto;html=1;entryX=0.5;entryY=0;entryDx=0;entryDy=0;" edge="1" parent="1" source="VNvHuFi4SlJEL6buC3LD-7" target="VNvHuFi4SlJEL6buC3LD-8">
          <mxGeometry relative="1" as="geometry" />
        </mxCell>
        <mxCell id="VNvHuFi4SlJEL6buC3LD-7" value="Виведення:&lt;br&gt;node.getValue()" style="shape=parallelogram;perimeter=parallelogramPerimeter;whiteSpace=wrap;html=1;fixedSize=1;" vertex="1" parent="1">
          <mxGeometry x="75" y="780" width="120" height="60" as="geometry" />
        </mxCell>
        <mxCell id="VNvHuFi4SlJEL6buC3LD-8" value="Кінець" style="ellipse;whiteSpace=wrap;html=1;" vertex="1" parent="1">
          <mxGeometry x="75" y="890" width="120" height="80" as="geometry" />
        </mxCell>
        <mxCell id="VNvHuFi4SlJEL6buC3LD-9" style="edgeStyle=orthogonalEdgeStyle;rounded=0;orthogonalLoop=1;jettySize=auto;html=1;entryX=0.569;entryY=-0.044;entryDx=0;entryDy=0;entryPerimeter=0;" edge="1" parent="1" source="VNvHuFi4SlJEL6buC3LD-1" target="VNvHuFi4SlJEL6buC3LD-2">
          <mxGeometry relative="1" as="geometry" />
        </mxCell>
        <mxCell id="VNvHuFi4SlJEL6buC3LD-15" style="edgeStyle=orthogonalEdgeStyle;rounded=0;orthogonalLoop=1;jettySize=auto;html=1;exitX=0.5;exitY=1;exitDx=0;exitDy=0;entryX=0.564;entryY=-0.011;entryDx=0;entryDy=0;entryPerimeter=0;" edge="1" parent="1" source="VNvHuFi4SlJEL6buC3LD-6" target="VNvHuFi4SlJEL6buC3LD-7">
          <mxGeometry relative="1" as="geometry" />
        </mxCell>
        <mxCell id="VNvHuFi4SlJEL6buC3LD-17" value="" style="edgeStyle=none;orthogonalLoop=1;jettySize=auto;html=1;rounded=0;" edge="1" parent="1">
          <mxGeometry width="100" relative="1" as="geometry">
            <mxPoint x="-20" y="750" as="sourcePoint" />
            <mxPoint x="140" y="750" as="targetPoint" />
            <Array as="points" />
          </mxGeometry>
        </mxCell>
        <mxCell id="VNvHuFi4SlJEL6buC3LD-20" value="" style="endArrow=classic;html=1;rounded=0;entryX=1;entryY=0.5;entryDx=0;entryDy=0;" edge="1" parent="1" target="VNvHuFi4SlJEL6buC3LD-4">
          <mxGeometry width="50" height="50" relative="1" as="geometry">
            <mxPoint x="290" y="390" as="sourcePoint" />
            <mxPoint x="340" y="340" as="targetPoint" />
          </mxGeometry>
        </mxCell>
        <mxCell id="VNvHuFi4SlJEL6buC3LD-22" value="ні" style="text;html=1;align=center;verticalAlign=middle;resizable=0;points=[];autosize=1;strokeColor=none;fillColor=none;" vertex="1" parent="1">
          <mxGeometry x="75" y="480" width="30" height="30" as="geometry" />
        </mxCell>
        <mxCell id="VNvHuFi4SlJEL6buC3LD-23" value="так" style="text;html=1;align=center;verticalAlign=middle;resizable=0;points=[];autosize=1;strokeColor=none;fillColor=none;" vertex="1" parent="1">
          <mxGeometry x="140" y="530" width="40" height="30" as="geometry" />
        </mxCell>
      </root>
    </mxGraphModel>
  </diagram>
</mxfile>
